<?xml version="1.0" encoding="UTF-8"?>
<!DOCTYPE svg PUBLIC "-//W3C//DTD SVG 1.1//EN" "http://www.w3.org/Graphics/SVG/1.1/DTD/svg11.dtd">
<svg width="213mm" height="139mm" viewBox="0 0 21300 13900" version="1.1" xmlns="http://www.w3.org/2000/svg" xmlns:xlink="http://www.w3.org/1999/xlink" stroke-width="28.222" stroke-linejoin="round" xml:space="preserve">
 <path fill="rgb(255,255,255)" stroke="none" d="M 10636,13879 L -13,13879 -13,-13 21284,-13 21284,13879 10636,13879 Z"/>
 <path fill="none" stroke="rgb(179,179,179)" stroke-linejoin="round" d="M 11543,11974 L 2415,11974 2415,2438 20672,2438 20672,11974 11543,11974 Z"/>
 <path fill="none" stroke="rgb(179,179,179)" stroke-linejoin="round" d="M 20672,11973 L 2415,11973"/>
 <path fill="none" stroke="rgb(179,179,179)" stroke-linejoin="round" d="M 20672,11019 L 2415,11019"/>
 <path fill="none" stroke="rgb(179,179,179)" stroke-linejoin="round" d="M 20672,10065 L 2415,10065"/>
 <path fill="none" stroke="rgb(179,179,179)" stroke-linejoin="round" d="M 20672,9111 L 2415,9111"/>
 <path fill="none" stroke="rgb(179,179,179)" stroke-linejoin="round" d="M 20672,8158 L 2415,8158"/>
 <path fill="none" stroke="rgb(179,179,179)" stroke-linejoin="round" d="M 20672,7204 L 2415,7204"/>
 <path fill="none" stroke="rgb(179,179,179)" stroke-linejoin="round" d="M 20672,6251 L 2415,6251"/>
 <path fill="none" stroke="rgb(179,179,179)" stroke-linejoin="round" d="M 20672,5298 L 2415,5298"/>
 <path fill="none" stroke="rgb(179,179,179)" stroke-linejoin="round" d="M 20672,4344 L 2415,4344"/>
 <path fill="none" stroke="rgb(179,179,179)" stroke-linejoin="round" d="M 20672,3390 L 2415,3390"/>
 <path fill="none" stroke="rgb(179,179,179)" stroke-linejoin="round" d="M 20672,2437 L 2415,2437"/>
 <path fill="none" stroke="rgb(179,179,179)" stroke-linejoin="round" d="M 2415,12123 L 2415,11973"/>
 <path fill="none" stroke="rgb(179,179,179)" stroke-linejoin="round" d="M 2415,12123 L 2415,11973"/>
 <path fill="none" stroke="rgb(179,179,179)" stroke-linejoin="round" d="M 3632,12123 L 3632,11973"/>
 <path fill="none" stroke="rgb(179,179,179)" stroke-linejoin="round" d="M 3632,12123 L 3632,11973"/>
 <path fill="none" stroke="rgb(179,179,179)" stroke-linejoin="round" d="M 4849,12123 L 4849,11973"/>
 <path fill="none" stroke="rgb(179,179,179)" stroke-linejoin="round" d="M 4849,12123 L 4849,11973"/>
 <path fill="none" stroke="rgb(179,179,179)" stroke-linejoin="round" d="M 6066,12123 L 6066,11973"/>
 <path fill="none" stroke="rgb(179,179,179)" stroke-linejoin="round" d="M 6066,12123 L 6066,11973"/>
 <path fill="none" stroke="rgb(179,179,179)" stroke-linejoin="round" d="M 7283,12123 L 7283,11973"/>
 <path fill="none" stroke="rgb(179,179,179)" stroke-linejoin="round" d="M 7283,12123 L 7283,11973"/>
 <path fill="none" stroke="rgb(179,179,179)" stroke-linejoin="round" d="M 8501,12123 L 8501,11973"/>
 <path fill="none" stroke="rgb(179,179,179)" stroke-linejoin="round" d="M 8501,12123 L 8501,11973"/>
 <path fill="none" stroke="rgb(179,179,179)" stroke-linejoin="round" d="M 9718,12123 L 9718,11973"/>
 <path fill="none" stroke="rgb(179,179,179)" stroke-linejoin="round" d="M 9718,12123 L 9718,11973"/>
 <path fill="none" stroke="rgb(179,179,179)" stroke-linejoin="round" d="M 10934,12123 L 10934,11973"/>
 <path fill="none" stroke="rgb(179,179,179)" stroke-linejoin="round" d="M 10934,12123 L 10934,11973"/>
 <path fill="none" stroke="rgb(179,179,179)" stroke-linejoin="round" d="M 12151,12123 L 12151,11973"/>
 <path fill="none" stroke="rgb(179,179,179)" stroke-linejoin="round" d="M 12151,12123 L 12151,11973"/>
 <path fill="none" stroke="rgb(179,179,179)" stroke-linejoin="round" d="M 13368,12123 L 13368,11973"/>
 <path fill="none" stroke="rgb(179,179,179)" stroke-linejoin="round" d="M 13368,12123 L 13368,11973"/>
 <path fill="none" stroke="rgb(179,179,179)" stroke-linejoin="round" d="M 14586,12123 L 14586,11973"/>
 <path fill="none" stroke="rgb(179,179,179)" stroke-linejoin="round" d="M 14586,12123 L 14586,11973"/>
 <path fill="none" stroke="rgb(179,179,179)" stroke-linejoin="round" d="M 15803,12123 L 15803,11973"/>
 <path fill="none" stroke="rgb(179,179,179)" stroke-linejoin="round" d="M 15803,12123 L 15803,11973"/>
 <path fill="none" stroke="rgb(179,179,179)" stroke-linejoin="round" d="M 17020,12123 L 17020,11973"/>
 <path fill="none" stroke="rgb(179,179,179)" stroke-linejoin="round" d="M 17020,12123 L 17020,11973"/>
 <path fill="none" stroke="rgb(179,179,179)" stroke-linejoin="round" d="M 18237,12123 L 18237,11973"/>
 <path fill="none" stroke="rgb(179,179,179)" stroke-linejoin="round" d="M 18237,12123 L 18237,11973"/>
 <path fill="none" stroke="rgb(179,179,179)" stroke-linejoin="round" d="M 19454,12123 L 19454,11973"/>
 <path fill="none" stroke="rgb(179,179,179)" stroke-linejoin="round" d="M 19454,12123 L 19454,11973"/>
 <path fill="none" stroke="rgb(179,179,179)" stroke-linejoin="round" d="M 20672,12123 L 20672,11973"/>
 <path fill="none" stroke="rgb(179,179,179)" stroke-linejoin="round" d="M 20672,12123 L 20672,11973"/>
 <path fill="none" stroke="rgb(179,179,179)" stroke-linejoin="round" d="M 2415,11973 L 20672,11973"/>
 <path fill="none" stroke="rgb(179,179,179)" stroke-linejoin="round" d="M 2265,11973 L 2415,11973"/>
 <path fill="none" stroke="rgb(179,179,179)" stroke-linejoin="round" d="M 2265,11973 L 2415,11973"/>
 <path fill="none" stroke="rgb(179,179,179)" stroke-linejoin="round" d="M 2265,11019 L 2415,11019"/>
 <path fill="none" stroke="rgb(179,179,179)" stroke-linejoin="round" d="M 2265,11019 L 2415,11019"/>
 <path fill="none" stroke="rgb(179,179,179)" stroke-linejoin="round" d="M 2265,10065 L 2415,10065"/>
 <path fill="none" stroke="rgb(179,179,179)" stroke-linejoin="round" d="M 2265,10065 L 2415,10065"/>
 <path fill="none" stroke="rgb(179,179,179)" stroke-linejoin="round" d="M 2265,9111 L 2415,9111"/>
 <path fill="none" stroke="rgb(179,179,179)" stroke-linejoin="round" d="M 2265,9111 L 2415,9111"/>
 <path fill="none" stroke="rgb(179,179,179)" stroke-linejoin="round" d="M 2265,8158 L 2415,8158"/>
 <path fill="none" stroke="rgb(179,179,179)" stroke-linejoin="round" d="M 2265,8158 L 2415,8158"/>
 <path fill="none" stroke="rgb(179,179,179)" stroke-linejoin="round" d="M 2265,7204 L 2415,7204"/>
 <path fill="none" stroke="rgb(179,179,179)" stroke-linejoin="round" d="M 2265,7204 L 2415,7204"/>
 <path fill="none" stroke="rgb(179,179,179)" stroke-linejoin="round" d="M 2265,6251 L 2415,6251"/>
 <path fill="none" stroke="rgb(179,179,179)" stroke-linejoin="round" d="M 2265,6251 L 2415,6251"/>
 <path fill="none" stroke="rgb(179,179,179)" stroke-linejoin="round" d="M 2265,5298 L 2415,5298"/>
 <path fill="none" stroke="rgb(179,179,179)" stroke-linejoin="round" d="M 2265,5298 L 2415,5298"/>
 <path fill="none" stroke="rgb(179,179,179)" stroke-linejoin="round" d="M 2265,4344 L 2415,4344"/>
 <path fill="none" stroke="rgb(179,179,179)" stroke-linejoin="round" d="M 2265,4344 L 2415,4344"/>
 <path fill="none" stroke="rgb(179,179,179)" stroke-linejoin="round" d="M 2265,3390 L 2415,3390"/>
 <path fill="none" stroke="rgb(179,179,179)" stroke-linejoin="round" d="M 2265,3390 L 2415,3390"/>
 <path fill="none" stroke="rgb(179,179,179)" stroke-linejoin="round" d="M 2265,2437 L 2415,2437"/>
 <path fill="none" stroke="rgb(179,179,179)" stroke-linejoin="round" d="M 2265,2437 L 2415,2437"/>
 <path fill="none" stroke="rgb(179,179,179)" stroke-linejoin="round" d="M 2415,11973 L 2415,2437"/>
 <path fill="none" stroke="rgb(0,69,134)" stroke-width="80" stroke-linejoin="round" d="M 2415,6693 L 3632,6381 4849,5226 6066,4954 7283,4975 8501,4849 9718,4814 10934,4461 12151,4574 13368,4403 14586,4077 15803,4063 17020,3279 18237,3927 19454,3536 20672,3221"/>
 <path fill="none" stroke="rgb(255,66,14)" stroke-width="80" stroke-linejoin="round" d="M 2415,10425 L 3632,10258 4849,10196 6066,10112 7283,10066 8501,10032 9718,9921 10934,9862 12151,9851 13368,9723 14586,9724 15803,9681 17020,8950 18237,9586 19454,9299 20672,9145"/>
 <path fill="none" stroke="rgb(255,211,32)" stroke-width="80" stroke-linejoin="round" d="M 2415,11263 L 3632,11130 4849,11072 6066,11055 7283,11047 8501,11030 9718,11000 10934,11008 12151,11002 13368,10962 14586,10936 15803,10962 17020,10945 18237,10936 19454,10821 20672,10879"/>
 <text class="SVGTextShape"><tspan class="TextParagraph" font-family="Liberation Sans, sans-serif" font-size="353px" font-weight="400"><tspan class="TextPosition" x="2322" y="12541"><tspan fill="rgb(0,0,0)" stroke="none" style="white-space: pre">0</tspan></tspan></tspan></text>
 <text class="SVGTextShape"><tspan class="TextParagraph" font-family="Liberation Sans, sans-serif" font-size="353px" font-weight="400"><tspan class="TextPosition" x="3539" y="12541"><tspan fill="rgb(0,0,0)" stroke="none" style="white-space: pre">1</tspan></tspan></tspan></text>
 <text class="SVGTextShape"><tspan class="TextParagraph" font-family="Liberation Sans, sans-serif" font-size="353px" font-weight="400"><tspan class="TextPosition" x="4756" y="12541"><tspan fill="rgb(0,0,0)" stroke="none" style="white-space: pre">2</tspan></tspan></tspan></text>
 <text class="SVGTextShape"><tspan class="TextParagraph" font-family="Liberation Sans, sans-serif" font-size="353px" font-weight="400"><tspan class="TextPosition" x="5973" y="12541"><tspan fill="rgb(0,0,0)" stroke="none" style="white-space: pre">3</tspan></tspan></tspan></text>
 <text class="SVGTextShape"><tspan class="TextParagraph" font-family="Liberation Sans, sans-serif" font-size="353px" font-weight="400"><tspan class="TextPosition" x="7190" y="12541"><tspan fill="rgb(0,0,0)" stroke="none" style="white-space: pre">4</tspan></tspan></tspan></text>
 <text class="SVGTextShape"><tspan class="TextParagraph" font-family="Liberation Sans, sans-serif" font-size="353px" font-weight="400"><tspan class="TextPosition" x="8408" y="12541"><tspan fill="rgb(0,0,0)" stroke="none" style="white-space: pre">5</tspan></tspan></tspan></text>
 <text class="SVGTextShape"><tspan class="TextParagraph" font-family="Liberation Sans, sans-serif" font-size="353px" font-weight="400"><tspan class="TextPosition" x="9625" y="12541"><tspan fill="rgb(0,0,0)" stroke="none" style="white-space: pre">6</tspan></tspan></tspan></text>
 <text class="SVGTextShape"><tspan class="TextParagraph" font-family="Liberation Sans, sans-serif" font-size="353px" font-weight="400"><tspan class="TextPosition" x="10842" y="12541"><tspan fill="rgb(0,0,0)" stroke="none" style="white-space: pre">7</tspan></tspan></tspan></text>
 <text class="SVGTextShape"><tspan class="TextParagraph" font-family="Liberation Sans, sans-serif" font-size="353px" font-weight="400"><tspan class="TextPosition" x="12059" y="12541"><tspan fill="rgb(0,0,0)" stroke="none" style="white-space: pre">8</tspan></tspan></tspan></text>
 <text class="SVGTextShape"><tspan class="TextParagraph" font-family="Liberation Sans, sans-serif" font-size="353px" font-weight="400"><tspan class="TextPosition" x="13276" y="12541"><tspan fill="rgb(0,0,0)" stroke="none" style="white-space: pre">9</tspan></tspan></tspan></text>
 <text class="SVGTextShape"><tspan class="TextParagraph" font-family="Liberation Sans, sans-serif" font-size="353px" font-weight="400"><tspan class="TextPosition" x="14402" y="12541"><tspan fill="rgb(0,0,0)" stroke="none" style="white-space: pre">10</tspan></tspan></tspan></text>
 <text class="SVGTextShape"><tspan class="TextParagraph" font-family="Liberation Sans, sans-serif" font-size="353px" font-weight="400"><tspan class="TextPosition" x="15619" y="12541"><tspan fill="rgb(0,0,0)" stroke="none" style="white-space: pre">11</tspan></tspan></tspan></text>
 <text class="SVGTextShape"><tspan class="TextParagraph" font-family="Liberation Sans, sans-serif" font-size="353px" font-weight="400"><tspan class="TextPosition" x="16836" y="12541"><tspan fill="rgb(0,0,0)" stroke="none" style="white-space: pre">12</tspan></tspan></tspan></text>
 <text class="SVGTextShape"><tspan class="TextParagraph" font-family="Liberation Sans, sans-serif" font-size="353px" font-weight="400"><tspan class="TextPosition" x="18053" y="12541"><tspan fill="rgb(0,0,0)" stroke="none" style="white-space: pre">13</tspan></tspan></tspan></text>
 <text class="SVGTextShape"><tspan class="TextParagraph" font-family="Liberation Sans, sans-serif" font-size="353px" font-weight="400"><tspan class="TextPosition" x="19270" y="12541"><tspan fill="rgb(0,0,0)" stroke="none" style="white-space: pre">14</tspan></tspan></tspan></text>
 <text class="SVGTextShape"><tspan class="TextParagraph" font-family="Liberation Sans, sans-serif" font-size="353px" font-weight="400"><tspan class="TextPosition" x="20488" y="12541"><tspan fill="rgb(0,0,0)" stroke="none" style="white-space: pre">15</tspan></tspan></tspan></text>
 <text class="SVGTextShape"><tspan class="TextParagraph" font-family="Liberation Sans, sans-serif" font-size="353px" font-weight="400"><tspan class="TextPosition" x="1980" y="12094"><tspan fill="rgb(0,0,0)" stroke="none" style="white-space: pre">0</tspan></tspan></tspan></text>
 <text class="SVGTextShape"><tspan class="TextParagraph" font-family="Liberation Sans, sans-serif" font-size="353px" font-weight="400"><tspan class="TextPosition" x="1609" y="11140"><tspan fill="rgb(0,0,0)" stroke="none" style="white-space: pre">100</tspan></tspan></tspan></text>
 <text class="SVGTextShape"><tspan class="TextParagraph" font-family="Liberation Sans, sans-serif" font-size="353px" font-weight="400"><tspan class="TextPosition" x="1609" y="10186"><tspan fill="rgb(0,0,0)" stroke="none" style="white-space: pre">200</tspan></tspan></tspan></text>
 <text class="SVGTextShape"><tspan class="TextParagraph" font-family="Liberation Sans, sans-serif" font-size="353px" font-weight="400"><tspan class="TextPosition" x="1609" y="9232"><tspan fill="rgb(0,0,0)" stroke="none" style="white-space: pre">300</tspan></tspan></tspan></text>
 <text class="SVGTextShape"><tspan class="TextParagraph" font-family="Liberation Sans, sans-serif" font-size="353px" font-weight="400"><tspan class="TextPosition" x="1609" y="8279"><tspan fill="rgb(0,0,0)" stroke="none" style="white-space: pre">400</tspan></tspan></tspan></text>
 <text class="SVGTextShape"><tspan class="TextParagraph" font-family="Liberation Sans, sans-serif" font-size="353px" font-weight="400"><tspan class="TextPosition" x="1609" y="7325"><tspan fill="rgb(0,0,0)" stroke="none" style="white-space: pre">500</tspan></tspan></tspan></text>
 <text class="SVGTextShape"><tspan class="TextParagraph" font-family="Liberation Sans, sans-serif" font-size="353px" font-weight="400"><tspan class="TextPosition" x="1609" y="6371"><tspan fill="rgb(0,0,0)" stroke="none" style="white-space: pre">600</tspan></tspan></tspan></text>
 <text class="SVGTextShape"><tspan class="TextParagraph" font-family="Liberation Sans, sans-serif" font-size="353px" font-weight="400"><tspan class="TextPosition" x="1609" y="5418"><tspan fill="rgb(0,0,0)" stroke="none" style="white-space: pre">700</tspan></tspan></tspan></text>
 <text class="SVGTextShape"><tspan class="TextParagraph" font-family="Liberation Sans, sans-serif" font-size="353px" font-weight="400"><tspan class="TextPosition" x="1609" y="4464"><tspan fill="rgb(0,0,0)" stroke="none" style="white-space: pre">800</tspan></tspan></tspan></text>
 <text class="SVGTextShape"><tspan class="TextParagraph" font-family="Liberation Sans, sans-serif" font-size="353px" font-weight="400"><tspan class="TextPosition" x="1609" y="3510"><tspan fill="rgb(0,0,0)" stroke="none" style="white-space: pre">900</tspan></tspan></tspan></text>
 <text class="SVGTextShape"><tspan class="TextParagraph" font-family="Liberation Sans, sans-serif" font-size="353px" font-weight="400"><tspan class="TextPosition" x="1424" y="2557"><tspan fill="rgb(0,0,0)" stroke="none" style="white-space: pre">1000</tspan></tspan></tspan></text>
 <text class="SVGTextShape"><tspan class="TextParagraph" font-family="Liberation Sans, sans-serif" font-size="459px" font-weight="400"><tspan class="TextPosition" x="8982" y="935"><tspan fill="rgb(0,0,0)" stroke="none" style="white-space: pre">Using formatters</tspan></tspan></tspan></text>
 <path fill="none" stroke="rgb(0,69,134)" stroke-width="80" stroke-linejoin="round" d="M 6709,1662 L 7509,1662"/>
 <path fill="none" stroke="rgb(255,66,14)" stroke-width="80" stroke-linejoin="round" d="M 10885,1662 L 11685,1662"/>
 <path fill="none" stroke="rgb(255,211,32)" stroke-width="80" stroke-linejoin="round" d="M 13157,1662 L 13957,1662"/>
 <text class="SVGTextShape"><tspan class="TextParagraph" font-family="Liberation Sans, sans-serif" font-size="353px" font-weight="400"><tspan class="TextPosition" x="7609" y="1782"><tspan fill="rgb(0,0,0)" stroke="none" style="white-space: pre">Glib::ustring::format</tspan></tspan></tspan></text>
 <text class="SVGTextShape"><tspan class="TextParagraph" font-family="Liberation Sans, sans-serif" font-size="353px" font-weight="400"><tspan class="TextPosition" x="11785" y="1782"><tspan fill="rgb(0,0,0)" stroke="none" style="white-space: pre">snprintf</tspan></tspan></tspan></text>
 <text class="SVGTextShape"><tspan class="TextParagraph" font-family="Liberation Sans, sans-serif" font-size="353px" font-weight="400"><tspan class="TextPosition" x="14057" y="1782"><tspan fill="rgb(0,0,0)" stroke="none" style="white-space: pre">fmt</tspan></tspan></tspan></text>
 <text class="SVGTextShape"><tspan class="TextParagraph" font-family="Liberation Sans, sans-serif" font-size="318px" font-weight="400"><tspan class="TextPosition" x="9699" y="13285"><tspan fill="rgb(0,0,0)" stroke="none" style="white-space: pre">Number of decimals</tspan></tspan></tspan></text>
 <text class="SVGTextShape" transform="rotate(-90 824 8104)"><tspan class="TextParagraph" font-family="Liberation Sans, sans-serif" font-size="318px" font-weight="400"><tspan class="TextPosition" x="824" y="8104"><tspan fill="rgb(0,0,0)" stroke="none" style="white-space: pre">Time (ns)</tspan></tspan></tspan></text>
</svg>