<?xml version="1.0" encoding="UTF-8"?>
<!DOCTYPE svg PUBLIC "-//W3C//DTD SVG 1.1//EN" "http://www.w3.org/Graphics/SVG/1.1/DTD/svg11.dtd">
<svg width="213mm" height="139mm" viewBox="0 0 21300 13900" version="1.1" xmlns="http://www.w3.org/2000/svg" xmlns:xlink="http://www.w3.org/1999/xlink" stroke-width="28.222" stroke-linejoin="round" xml:space="preserve">
 <path fill="rgb(255,255,255)" stroke="none" d="M 10636,13879 L -13,13879 -13,-13 21284,-13 21284,13879 10636,13879 Z"/>
 <path fill="none" stroke="rgb(179,179,179)" stroke-linejoin="round" d="M 11543,11974 L 2415,11974 2415,2438 20672,2438 20672,11974 11543,11974 Z"/>
 <path fill="none" stroke="rgb(179,179,179)" stroke-linejoin="round" d="M 20672,11973 L 2415,11973"/>
 <path fill="none" stroke="rgb(179,179,179)" stroke-linejoin="round" d="M 20672,10610 L 2415,10610"/>
 <path fill="none" stroke="rgb(179,179,179)" stroke-linejoin="round" d="M 20672,9248 L 2415,9248"/>
 <path fill="none" stroke="rgb(179,179,179)" stroke-linejoin="round" d="M 20672,7885 L 2415,7885"/>
 <path fill="none" stroke="rgb(179,179,179)" stroke-linejoin="round" d="M 20672,6524 L 2415,6524"/>
 <path fill="none" stroke="rgb(179,179,179)" stroke-linejoin="round" d="M 20672,5161 L 2415,5161"/>
 <path fill="none" stroke="rgb(179,179,179)" stroke-linejoin="round" d="M 20672,3799 L 2415,3799"/>
 <path fill="none" stroke="rgb(179,179,179)" stroke-linejoin="round" d="M 20672,2437 L 2415,2437"/>
 <path fill="none" stroke="rgb(179,179,179)" stroke-linejoin="round" d="M 2415,12123 L 2415,11973"/>
 <path fill="none" stroke="rgb(179,179,179)" stroke-linejoin="round" d="M 2415,12123 L 2415,11973"/>
 <path fill="none" stroke="rgb(179,179,179)" stroke-linejoin="round" d="M 3632,12123 L 3632,11973"/>
 <path fill="none" stroke="rgb(179,179,179)" stroke-linejoin="round" d="M 3632,12123 L 3632,11973"/>
 <path fill="none" stroke="rgb(179,179,179)" stroke-linejoin="round" d="M 4849,12123 L 4849,11973"/>
 <path fill="none" stroke="rgb(179,179,179)" stroke-linejoin="round" d="M 4849,12123 L 4849,11973"/>
 <path fill="none" stroke="rgb(179,179,179)" stroke-linejoin="round" d="M 6066,12123 L 6066,11973"/>
 <path fill="none" stroke="rgb(179,179,179)" stroke-linejoin="round" d="M 6066,12123 L 6066,11973"/>
 <path fill="none" stroke="rgb(179,179,179)" stroke-linejoin="round" d="M 7283,12123 L 7283,11973"/>
 <path fill="none" stroke="rgb(179,179,179)" stroke-linejoin="round" d="M 7283,12123 L 7283,11973"/>
 <path fill="none" stroke="rgb(179,179,179)" stroke-linejoin="round" d="M 8501,12123 L 8501,11973"/>
 <path fill="none" stroke="rgb(179,179,179)" stroke-linejoin="round" d="M 8501,12123 L 8501,11973"/>
 <path fill="none" stroke="rgb(179,179,179)" stroke-linejoin="round" d="M 9718,12123 L 9718,11973"/>
 <path fill="none" stroke="rgb(179,179,179)" stroke-linejoin="round" d="M 9718,12123 L 9718,11973"/>
 <path fill="none" stroke="rgb(179,179,179)" stroke-linejoin="round" d="M 10934,12123 L 10934,11973"/>
 <path fill="none" stroke="rgb(179,179,179)" stroke-linejoin="round" d="M 10934,12123 L 10934,11973"/>
 <path fill="none" stroke="rgb(179,179,179)" stroke-linejoin="round" d="M 12151,12123 L 12151,11973"/>
 <path fill="none" stroke="rgb(179,179,179)" stroke-linejoin="round" d="M 12151,12123 L 12151,11973"/>
 <path fill="none" stroke="rgb(179,179,179)" stroke-linejoin="round" d="M 13368,12123 L 13368,11973"/>
 <path fill="none" stroke="rgb(179,179,179)" stroke-linejoin="round" d="M 13368,12123 L 13368,11973"/>
 <path fill="none" stroke="rgb(179,179,179)" stroke-linejoin="round" d="M 14586,12123 L 14586,11973"/>
 <path fill="none" stroke="rgb(179,179,179)" stroke-linejoin="round" d="M 14586,12123 L 14586,11973"/>
 <path fill="none" stroke="rgb(179,179,179)" stroke-linejoin="round" d="M 15803,12123 L 15803,11973"/>
 <path fill="none" stroke="rgb(179,179,179)" stroke-linejoin="round" d="M 15803,12123 L 15803,11973"/>
 <path fill="none" stroke="rgb(179,179,179)" stroke-linejoin="round" d="M 17020,12123 L 17020,11973"/>
 <path fill="none" stroke="rgb(179,179,179)" stroke-linejoin="round" d="M 17020,12123 L 17020,11973"/>
 <path fill="none" stroke="rgb(179,179,179)" stroke-linejoin="round" d="M 18237,12123 L 18237,11973"/>
 <path fill="none" stroke="rgb(179,179,179)" stroke-linejoin="round" d="M 18237,12123 L 18237,11973"/>
 <path fill="none" stroke="rgb(179,179,179)" stroke-linejoin="round" d="M 19454,12123 L 19454,11973"/>
 <path fill="none" stroke="rgb(179,179,179)" stroke-linejoin="round" d="M 19454,12123 L 19454,11973"/>
 <path fill="none" stroke="rgb(179,179,179)" stroke-linejoin="round" d="M 20672,12123 L 20672,11973"/>
 <path fill="none" stroke="rgb(179,179,179)" stroke-linejoin="round" d="M 20672,12123 L 20672,11973"/>
 <path fill="none" stroke="rgb(179,179,179)" stroke-linejoin="round" d="M 2415,11973 L 20672,11973"/>
 <path fill="none" stroke="rgb(179,179,179)" stroke-linejoin="round" d="M 2265,11973 L 2415,11973"/>
 <path fill="none" stroke="rgb(179,179,179)" stroke-linejoin="round" d="M 2265,11973 L 2415,11973"/>
 <path fill="none" stroke="rgb(179,179,179)" stroke-linejoin="round" d="M 2265,10610 L 2415,10610"/>
 <path fill="none" stroke="rgb(179,179,179)" stroke-linejoin="round" d="M 2265,10610 L 2415,10610"/>
 <path fill="none" stroke="rgb(179,179,179)" stroke-linejoin="round" d="M 2265,9248 L 2415,9248"/>
 <path fill="none" stroke="rgb(179,179,179)" stroke-linejoin="round" d="M 2265,9248 L 2415,9248"/>
 <path fill="none" stroke="rgb(179,179,179)" stroke-linejoin="round" d="M 2265,7885 L 2415,7885"/>
 <path fill="none" stroke="rgb(179,179,179)" stroke-linejoin="round" d="M 2265,7885 L 2415,7885"/>
 <path fill="none" stroke="rgb(179,179,179)" stroke-linejoin="round" d="M 2265,6524 L 2415,6524"/>
 <path fill="none" stroke="rgb(179,179,179)" stroke-linejoin="round" d="M 2265,6524 L 2415,6524"/>
 <path fill="none" stroke="rgb(179,179,179)" stroke-linejoin="round" d="M 2265,5161 L 2415,5161"/>
 <path fill="none" stroke="rgb(179,179,179)" stroke-linejoin="round" d="M 2265,5161 L 2415,5161"/>
 <path fill="none" stroke="rgb(179,179,179)" stroke-linejoin="round" d="M 2265,3799 L 2415,3799"/>
 <path fill="none" stroke="rgb(179,179,179)" stroke-linejoin="round" d="M 2265,3799 L 2415,3799"/>
 <path fill="none" stroke="rgb(179,179,179)" stroke-linejoin="round" d="M 2265,2437 L 2415,2437"/>
 <path fill="none" stroke="rgb(179,179,179)" stroke-linejoin="round" d="M 2265,2437 L 2415,2437"/>
 <path fill="none" stroke="rgb(179,179,179)" stroke-linejoin="round" d="M 2415,11973 L 2415,2437"/>
 <path fill="none" stroke="rgb(0,69,134)" stroke-width="80" stroke-linejoin="round" d="M 2415,5919 L 3632,5980 4849,5841 6066,5280 7283,4650 8501,4329 9718,4747 10934,4483 12151,4506 13368,4772 14586,4606 15803,4214 17020,4222 18237,4085 19454,4125 20672,4452"/>
 <path fill="none" stroke="rgb(255,66,14)" stroke-width="80" stroke-linejoin="round" d="M 2415,11360 L 3632,11192 4849,11199 6066,11183 7283,11205 8501,11180 9718,11174 10934,11151 12151,11147 13368,11146 14586,11039 15803,11129 17020,11136 18237,11132 19454,11099 20672,11119"/>
 <path fill="none" stroke="rgb(255,211,32)" stroke-width="80" stroke-linejoin="round" d="M 2415,11629 L 3632,11507 4849,11474 6066,11473 7283,11460 8501,11405 9718,11489 10934,11487 12151,11473 13368,11467 14586,11474 15803,11472 17020,11456 18237,11474 19454,11474 20672,10038"/>
 <text class="SVGTextShape"><tspan class="TextParagraph" font-family="Liberation Sans, sans-serif" font-size="353px" font-weight="400"><tspan class="TextPosition" x="2322" y="12541"><tspan fill="rgb(0,0,0)" stroke="none" style="white-space: pre">0</tspan></tspan></tspan></text>
 <text class="SVGTextShape"><tspan class="TextParagraph" font-family="Liberation Sans, sans-serif" font-size="353px" font-weight="400"><tspan class="TextPosition" x="3539" y="12541"><tspan fill="rgb(0,0,0)" stroke="none" style="white-space: pre">1</tspan></tspan></tspan></text>
 <text class="SVGTextShape"><tspan class="TextParagraph" font-family="Liberation Sans, sans-serif" font-size="353px" font-weight="400"><tspan class="TextPosition" x="4756" y="12541"><tspan fill="rgb(0,0,0)" stroke="none" style="white-space: pre">2</tspan></tspan></tspan></text>
 <text class="SVGTextShape"><tspan class="TextParagraph" font-family="Liberation Sans, sans-serif" font-size="353px" font-weight="400"><tspan class="TextPosition" x="5973" y="12541"><tspan fill="rgb(0,0,0)" stroke="none" style="white-space: pre">3</tspan></tspan></tspan></text>
 <text class="SVGTextShape"><tspan class="TextParagraph" font-family="Liberation Sans, sans-serif" font-size="353px" font-weight="400"><tspan class="TextPosition" x="7190" y="12541"><tspan fill="rgb(0,0,0)" stroke="none" style="white-space: pre">4</tspan></tspan></tspan></text>
 <text class="SVGTextShape"><tspan class="TextParagraph" font-family="Liberation Sans, sans-serif" font-size="353px" font-weight="400"><tspan class="TextPosition" x="8408" y="12541"><tspan fill="rgb(0,0,0)" stroke="none" style="white-space: pre">5</tspan></tspan></tspan></text>
 <text class="SVGTextShape"><tspan class="TextParagraph" font-family="Liberation Sans, sans-serif" font-size="353px" font-weight="400"><tspan class="TextPosition" x="9625" y="12541"><tspan fill="rgb(0,0,0)" stroke="none" style="white-space: pre">6</tspan></tspan></tspan></text>
 <text class="SVGTextShape"><tspan class="TextParagraph" font-family="Liberation Sans, sans-serif" font-size="353px" font-weight="400"><tspan class="TextPosition" x="10842" y="12541"><tspan fill="rgb(0,0,0)" stroke="none" style="white-space: pre">7</tspan></tspan></tspan></text>
 <text class="SVGTextShape"><tspan class="TextParagraph" font-family="Liberation Sans, sans-serif" font-size="353px" font-weight="400"><tspan class="TextPosition" x="12059" y="12541"><tspan fill="rgb(0,0,0)" stroke="none" style="white-space: pre">8</tspan></tspan></tspan></text>
 <text class="SVGTextShape"><tspan class="TextParagraph" font-family="Liberation Sans, sans-serif" font-size="353px" font-weight="400"><tspan class="TextPosition" x="13276" y="12541"><tspan fill="rgb(0,0,0)" stroke="none" style="white-space: pre">9</tspan></tspan></tspan></text>
 <text class="SVGTextShape"><tspan class="TextParagraph" font-family="Liberation Sans, sans-serif" font-size="353px" font-weight="400"><tspan class="TextPosition" x="14402" y="12541"><tspan fill="rgb(0,0,0)" stroke="none" style="white-space: pre">10</tspan></tspan></tspan></text>
 <text class="SVGTextShape"><tspan class="TextParagraph" font-family="Liberation Sans, sans-serif" font-size="353px" font-weight="400"><tspan class="TextPosition" x="15619" y="12541"><tspan fill="rgb(0,0,0)" stroke="none" style="white-space: pre">11</tspan></tspan></tspan></text>
 <text class="SVGTextShape"><tspan class="TextParagraph" font-family="Liberation Sans, sans-serif" font-size="353px" font-weight="400"><tspan class="TextPosition" x="16836" y="12541"><tspan fill="rgb(0,0,0)" stroke="none" style="white-space: pre">12</tspan></tspan></tspan></text>
 <text class="SVGTextShape"><tspan class="TextParagraph" font-family="Liberation Sans, sans-serif" font-size="353px" font-weight="400"><tspan class="TextPosition" x="18053" y="12541"><tspan fill="rgb(0,0,0)" stroke="none" style="white-space: pre">13</tspan></tspan></tspan></text>
 <text class="SVGTextShape"><tspan class="TextParagraph" font-family="Liberation Sans, sans-serif" font-size="353px" font-weight="400"><tspan class="TextPosition" x="19270" y="12541"><tspan fill="rgb(0,0,0)" stroke="none" style="white-space: pre">14</tspan></tspan></tspan></text>
 <text class="SVGTextShape"><tspan class="TextParagraph" font-family="Liberation Sans, sans-serif" font-size="353px" font-weight="400"><tspan class="TextPosition" x="20488" y="12541"><tspan fill="rgb(0,0,0)" stroke="none" style="white-space: pre">15</tspan></tspan></tspan></text>
 <text class="SVGTextShape"><tspan class="TextParagraph" font-family="Liberation Sans, sans-serif" font-size="353px" font-weight="400"><tspan class="TextPosition" x="1980" y="12094"><tspan fill="rgb(0,0,0)" stroke="none" style="white-space: pre">0</tspan></tspan></tspan></text>
 <text class="SVGTextShape"><tspan class="TextParagraph" font-family="Liberation Sans, sans-serif" font-size="353px" font-weight="400"><tspan class="TextPosition" x="1609" y="10731"><tspan fill="rgb(0,0,0)" stroke="none" style="white-space: pre">200</tspan></tspan></tspan></text>
 <text class="SVGTextShape"><tspan class="TextParagraph" font-family="Liberation Sans, sans-serif" font-size="353px" font-weight="400"><tspan class="TextPosition" x="1609" y="9369"><tspan fill="rgb(0,0,0)" stroke="none" style="white-space: pre">400</tspan></tspan></tspan></text>
 <text class="SVGTextShape"><tspan class="TextParagraph" font-family="Liberation Sans, sans-serif" font-size="353px" font-weight="400"><tspan class="TextPosition" x="1609" y="8006"><tspan fill="rgb(0,0,0)" stroke="none" style="white-space: pre">600</tspan></tspan></tspan></text>
 <text class="SVGTextShape"><tspan class="TextParagraph" font-family="Liberation Sans, sans-serif" font-size="353px" font-weight="400"><tspan class="TextPosition" x="1609" y="6644"><tspan fill="rgb(0,0,0)" stroke="none" style="white-space: pre">800</tspan></tspan></tspan></text>
 <text class="SVGTextShape"><tspan class="TextParagraph" font-family="Liberation Sans, sans-serif" font-size="353px" font-weight="400"><tspan class="TextPosition" x="1424" y="5281"><tspan fill="rgb(0,0,0)" stroke="none" style="white-space: pre">1000</tspan></tspan></tspan></text>
 <text class="SVGTextShape"><tspan class="TextParagraph" font-family="Liberation Sans, sans-serif" font-size="353px" font-weight="400"><tspan class="TextPosition" x="1424" y="3919"><tspan fill="rgb(0,0,0)" stroke="none" style="white-space: pre">1200</tspan></tspan></tspan></text>
 <text class="SVGTextShape"><tspan class="TextParagraph" font-family="Liberation Sans, sans-serif" font-size="353px" font-weight="400"><tspan class="TextPosition" x="1424" y="2557"><tspan fill="rgb(0,0,0)" stroke="none" style="white-space: pre">1400</tspan></tspan></tspan></text>
 <text class="SVGTextShape"><tspan class="TextParagraph" font-family="Liberation Sans, sans-serif" font-size="459px" font-weight="400"><tspan class="TextPosition" x="8228" y="935"><tspan fill="rgb(0,0,0)" stroke="none" style="white-space: pre">Using arithmetic method</tspan></tspan></tspan></text>
 <path fill="none" stroke="rgb(0,69,134)" stroke-width="80" stroke-linejoin="round" d="M 6497,1662 L 7297,1662"/>
 <path fill="none" stroke="rgb(255,66,14)" stroke-width="80" stroke-linejoin="round" d="M 11096,1662 L 11896,1662"/>
 <path fill="none" stroke="rgb(255,211,32)" stroke-width="80" stroke-linejoin="round" d="M 13368,1662 L 14168,1662"/>
 <text class="SVGTextShape"><tspan class="TextParagraph" font-family="Liberation Sans, sans-serif" font-size="353px" font-weight="400"><tspan class="TextPosition" x="7397" y="1782"><tspan fill="rgb(0,0,0)" stroke="none" style="white-space: pre">Glib::ustring::compose</tspan></tspan></tspan></text>
 <text class="SVGTextShape"><tspan class="TextParagraph" font-family="Liberation Sans, sans-serif" font-size="353px" font-weight="400"><tspan class="TextPosition" x="11996" y="1782"><tspan fill="rgb(0,0,0)" stroke="none" style="white-space: pre">snprintf</tspan></tspan></tspan></text>
 <text class="SVGTextShape"><tspan class="TextParagraph" font-family="Liberation Sans, sans-serif" font-size="353px" font-weight="400"><tspan class="TextPosition" x="14268" y="1782"><tspan fill="rgb(0,0,0)" stroke="none" style="white-space: pre">fmt</tspan></tspan></tspan></text>
 <text class="SVGTextShape"><tspan class="TextParagraph" font-family="Liberation Sans, sans-serif" font-size="318px" font-weight="400"><tspan class="TextPosition" x="9699" y="13285"><tspan fill="rgb(0,0,0)" stroke="none" style="white-space: pre">Number of decimals</tspan></tspan></tspan></text>
 <text class="SVGTextShape" transform="rotate(-90 824 8104)"><tspan class="TextParagraph" font-family="Liberation Sans, sans-serif" font-size="318px" font-weight="400"><tspan class="TextPosition" x="824" y="8104"><tspan fill="rgb(0,0,0)" stroke="none" style="white-space: pre">Time (ns)</tspan></tspan></tspan></text>
</svg>