<?xml version="1.0" encoding="UTF-8"?>
<!DOCTYPE svg PUBLIC "-//W3C//DTD SVG 1.1//EN" "http://www.w3.org/Graphics/SVG/1.1/DTD/svg11.dtd">
<svg width="227mm" height="128mm" viewBox="0 0 22700 12800" version="1.1" xmlns="http://www.w3.org/2000/svg" xmlns:xlink="http://www.w3.org/1999/xlink" stroke-width="28.222" stroke-linejoin="round" xml:space="preserve">
 <path fill="rgb(255,255,255)" stroke="none" d="M 11321,12737 L -13,12737 -13,-13 22655,-13 22655,12737 11321,12737 Z"/>
 <path fill="none" stroke="rgb(179,179,179)" stroke-linejoin="round" d="M 12136,10854 L 2258,10854 2258,3332 22015,3332 22015,10854 12136,10854 Z"/>
 <path fill="none" stroke="rgb(179,179,179)" stroke-linejoin="round" d="M 22014,10853 L 2258,10853"/>
 <path fill="none" stroke="rgb(179,179,179)" stroke-linejoin="round" d="M 22014,9348 L 2258,9348"/>
 <path fill="none" stroke="rgb(179,179,179)" stroke-linejoin="round" d="M 22014,7843 L 2258,7843"/>
 <path fill="none" stroke="rgb(179,179,179)" stroke-linejoin="round" d="M 22014,6340 L 2258,6340"/>
 <path fill="none" stroke="rgb(179,179,179)" stroke-linejoin="round" d="M 22014,4835 L 2258,4835"/>
 <path fill="none" stroke="rgb(179,179,179)" stroke-linejoin="round" d="M 22014,3331 L 2258,3331"/>
 <path fill="none" stroke="rgb(179,179,179)" stroke-linejoin="round" d="M 2258,11003 L 2258,10853"/>
 <path fill="none" stroke="rgb(179,179,179)" stroke-linejoin="round" d="M 2258,11003 L 2258,10853"/>
 <path fill="none" stroke="rgb(179,179,179)" stroke-linejoin="round" d="M 3575,11003 L 3575,10853"/>
 <path fill="none" stroke="rgb(179,179,179)" stroke-linejoin="round" d="M 3575,11003 L 3575,10853"/>
 <path fill="none" stroke="rgb(179,179,179)" stroke-linejoin="round" d="M 4892,11003 L 4892,10853"/>
 <path fill="none" stroke="rgb(179,179,179)" stroke-linejoin="round" d="M 4892,11003 L 4892,10853"/>
 <path fill="none" stroke="rgb(179,179,179)" stroke-linejoin="round" d="M 6209,11003 L 6209,10853"/>
 <path fill="none" stroke="rgb(179,179,179)" stroke-linejoin="round" d="M 6209,11003 L 6209,10853"/>
 <path fill="none" stroke="rgb(179,179,179)" stroke-linejoin="round" d="M 7526,11003 L 7526,10853"/>
 <path fill="none" stroke="rgb(179,179,179)" stroke-linejoin="round" d="M 7526,11003 L 7526,10853"/>
 <path fill="none" stroke="rgb(179,179,179)" stroke-linejoin="round" d="M 8843,11003 L 8843,10853"/>
 <path fill="none" stroke="rgb(179,179,179)" stroke-linejoin="round" d="M 8843,11003 L 8843,10853"/>
 <path fill="none" stroke="rgb(179,179,179)" stroke-linejoin="round" d="M 10161,11003 L 10161,10853"/>
 <path fill="none" stroke="rgb(179,179,179)" stroke-linejoin="round" d="M 10161,11003 L 10161,10853"/>
 <path fill="none" stroke="rgb(179,179,179)" stroke-linejoin="round" d="M 11477,11003 L 11477,10853"/>
 <path fill="none" stroke="rgb(179,179,179)" stroke-linejoin="round" d="M 11477,11003 L 11477,10853"/>
 <path fill="none" stroke="rgb(179,179,179)" stroke-linejoin="round" d="M 12794,11003 L 12794,10853"/>
 <path fill="none" stroke="rgb(179,179,179)" stroke-linejoin="round" d="M 12794,11003 L 12794,10853"/>
 <path fill="none" stroke="rgb(179,179,179)" stroke-linejoin="round" d="M 14111,11003 L 14111,10853"/>
 <path fill="none" stroke="rgb(179,179,179)" stroke-linejoin="round" d="M 14111,11003 L 14111,10853"/>
 <path fill="none" stroke="rgb(179,179,179)" stroke-linejoin="round" d="M 15428,11003 L 15428,10853"/>
 <path fill="none" stroke="rgb(179,179,179)" stroke-linejoin="round" d="M 15428,11003 L 15428,10853"/>
 <path fill="none" stroke="rgb(179,179,179)" stroke-linejoin="round" d="M 16746,11003 L 16746,10853"/>
 <path fill="none" stroke="rgb(179,179,179)" stroke-linejoin="round" d="M 16746,11003 L 16746,10853"/>
 <path fill="none" stroke="rgb(179,179,179)" stroke-linejoin="round" d="M 18063,11003 L 18063,10853"/>
 <path fill="none" stroke="rgb(179,179,179)" stroke-linejoin="round" d="M 18063,11003 L 18063,10853"/>
 <path fill="none" stroke="rgb(179,179,179)" stroke-linejoin="round" d="M 19380,11003 L 19380,10853"/>
 <path fill="none" stroke="rgb(179,179,179)" stroke-linejoin="round" d="M 19380,11003 L 19380,10853"/>
 <path fill="none" stroke="rgb(179,179,179)" stroke-linejoin="round" d="M 20697,11003 L 20697,10853"/>
 <path fill="none" stroke="rgb(179,179,179)" stroke-linejoin="round" d="M 20697,11003 L 20697,10853"/>
 <path fill="none" stroke="rgb(179,179,179)" stroke-linejoin="round" d="M 22014,11003 L 22014,10853"/>
 <path fill="none" stroke="rgb(179,179,179)" stroke-linejoin="round" d="M 22014,11003 L 22014,10853"/>
 <path fill="none" stroke="rgb(179,179,179)" stroke-linejoin="round" d="M 2258,10853 L 22014,10853"/>
 <path fill="none" stroke="rgb(179,179,179)" stroke-linejoin="round" d="M 2108,10853 L 2258,10853"/>
 <path fill="none" stroke="rgb(179,179,179)" stroke-linejoin="round" d="M 2108,10853 L 2258,10853"/>
 <path fill="none" stroke="rgb(179,179,179)" stroke-linejoin="round" d="M 2108,9348 L 2258,9348"/>
 <path fill="none" stroke="rgb(179,179,179)" stroke-linejoin="round" d="M 2108,9348 L 2258,9348"/>
 <path fill="none" stroke="rgb(179,179,179)" stroke-linejoin="round" d="M 2108,7843 L 2258,7843"/>
 <path fill="none" stroke="rgb(179,179,179)" stroke-linejoin="round" d="M 2108,7843 L 2258,7843"/>
 <path fill="none" stroke="rgb(179,179,179)" stroke-linejoin="round" d="M 2108,6340 L 2258,6340"/>
 <path fill="none" stroke="rgb(179,179,179)" stroke-linejoin="round" d="M 2108,6340 L 2258,6340"/>
 <path fill="none" stroke="rgb(179,179,179)" stroke-linejoin="round" d="M 2108,4835 L 2258,4835"/>
 <path fill="none" stroke="rgb(179,179,179)" stroke-linejoin="round" d="M 2108,4835 L 2258,4835"/>
 <path fill="none" stroke="rgb(179,179,179)" stroke-linejoin="round" d="M 2108,3331 L 2258,3331"/>
 <path fill="none" stroke="rgb(179,179,179)" stroke-linejoin="round" d="M 2108,3331 L 2258,3331"/>
 <path fill="none" stroke="rgb(179,179,179)" stroke-linejoin="round" d="M 2258,10853 L 2258,3331"/>
 <path fill="none" stroke="rgb(0,69,134)" stroke-width="80" stroke-linejoin="round" d="M 2258,6174 L 3575,5652 4892,5532 6209,5554 7526,5419 8844,5336 10161,5136 11477,4638 12794,5223 14111,4687 15428,5068 16746,5098 18063,5029 19380,5023 20697,4210 22014,4142"/>
 <path fill="none" stroke="rgb(255,66,14)" stroke-width="80" stroke-linejoin="round" d="M 2258,6449 L 3575,5868 4892,5846 6209,5778 7526,5826 8844,4128 10161,4123 11477,4183 12794,5414 14111,5828 15428,5928 16746,5816 18063,5860 19380,5745 20697,5857 22014,5734"/>
 <text class="SVGTextShape"><tspan class="TextParagraph" font-family="Liberation Sans, sans-serif" font-size="353px" font-weight="400"><tspan class="TextPosition" x="2165" y="11421"><tspan fill="rgb(0,0,0)" stroke="none" style="white-space: pre">0</tspan></tspan></tspan></text>
 <text class="SVGTextShape"><tspan class="TextParagraph" font-family="Liberation Sans, sans-serif" font-size="353px" font-weight="400"><tspan class="TextPosition" x="3482" y="11421"><tspan fill="rgb(0,0,0)" stroke="none" style="white-space: pre">1</tspan></tspan></tspan></text>
 <text class="SVGTextShape"><tspan class="TextParagraph" font-family="Liberation Sans, sans-serif" font-size="353px" font-weight="400"><tspan class="TextPosition" x="4799" y="11421"><tspan fill="rgb(0,0,0)" stroke="none" style="white-space: pre">2</tspan></tspan></tspan></text>
 <text class="SVGTextShape"><tspan class="TextParagraph" font-family="Liberation Sans, sans-serif" font-size="353px" font-weight="400"><tspan class="TextPosition" x="6116" y="11421"><tspan fill="rgb(0,0,0)" stroke="none" style="white-space: pre">3</tspan></tspan></tspan></text>
 <text class="SVGTextShape"><tspan class="TextParagraph" font-family="Liberation Sans, sans-serif" font-size="353px" font-weight="400"><tspan class="TextPosition" x="7433" y="11421"><tspan fill="rgb(0,0,0)" stroke="none" style="white-space: pre">4</tspan></tspan></tspan></text>
 <text class="SVGTextShape"><tspan class="TextParagraph" font-family="Liberation Sans, sans-serif" font-size="353px" font-weight="400"><tspan class="TextPosition" x="8750" y="11421"><tspan fill="rgb(0,0,0)" stroke="none" style="white-space: pre">5</tspan></tspan></tspan></text>
 <text class="SVGTextShape"><tspan class="TextParagraph" font-family="Liberation Sans, sans-serif" font-size="353px" font-weight="400"><tspan class="TextPosition" x="10068" y="11421"><tspan fill="rgb(0,0,0)" stroke="none" style="white-space: pre">6</tspan></tspan></tspan></text>
 <text class="SVGTextShape"><tspan class="TextParagraph" font-family="Liberation Sans, sans-serif" font-size="353px" font-weight="400"><tspan class="TextPosition" x="11385" y="11421"><tspan fill="rgb(0,0,0)" stroke="none" style="white-space: pre">7</tspan></tspan></tspan></text>
 <text class="SVGTextShape"><tspan class="TextParagraph" font-family="Liberation Sans, sans-serif" font-size="353px" font-weight="400"><tspan class="TextPosition" x="12702" y="11421"><tspan fill="rgb(0,0,0)" stroke="none" style="white-space: pre">8</tspan></tspan></tspan></text>
 <text class="SVGTextShape"><tspan class="TextParagraph" font-family="Liberation Sans, sans-serif" font-size="353px" font-weight="400"><tspan class="TextPosition" x="14019" y="11421"><tspan fill="rgb(0,0,0)" stroke="none" style="white-space: pre">9</tspan></tspan></tspan></text>
 <text class="SVGTextShape"><tspan class="TextParagraph" font-family="Liberation Sans, sans-serif" font-size="353px" font-weight="400"><tspan class="TextPosition" x="15244" y="11421"><tspan fill="rgb(0,0,0)" stroke="none" style="white-space: pre">10</tspan></tspan></tspan></text>
 <text class="SVGTextShape"><tspan class="TextParagraph" font-family="Liberation Sans, sans-serif" font-size="353px" font-weight="400"><tspan class="TextPosition" x="16562" y="11421"><tspan fill="rgb(0,0,0)" stroke="none" style="white-space: pre">11</tspan></tspan></tspan></text>
 <text class="SVGTextShape"><tspan class="TextParagraph" font-family="Liberation Sans, sans-serif" font-size="353px" font-weight="400"><tspan class="TextPosition" x="17879" y="11421"><tspan fill="rgb(0,0,0)" stroke="none" style="white-space: pre">12</tspan></tspan></tspan></text>
 <text class="SVGTextShape"><tspan class="TextParagraph" font-family="Liberation Sans, sans-serif" font-size="353px" font-weight="400"><tspan class="TextPosition" x="19196" y="11421"><tspan fill="rgb(0,0,0)" stroke="none" style="white-space: pre">13</tspan></tspan></tspan></text>
 <text class="SVGTextShape"><tspan class="TextParagraph" font-family="Liberation Sans, sans-serif" font-size="353px" font-weight="400"><tspan class="TextPosition" x="20513" y="11421"><tspan fill="rgb(0,0,0)" stroke="none" style="white-space: pre">14</tspan></tspan></tspan></text>
 <text class="SVGTextShape"><tspan class="TextParagraph" font-family="Liberation Sans, sans-serif" font-size="353px" font-weight="400"><tspan class="TextPosition" x="21830" y="11421"><tspan fill="rgb(0,0,0)" stroke="none" style="white-space: pre">15</tspan></tspan></tspan></text>
 <text class="SVGTextShape"><tspan class="TextParagraph" font-family="Liberation Sans, sans-serif" font-size="353px" font-weight="400"><tspan class="TextPosition" x="1823" y="10974"><tspan fill="rgb(0,0,0)" stroke="none" style="white-space: pre">0</tspan></tspan></tspan></text>
 <text class="SVGTextShape"><tspan class="TextParagraph" font-family="Liberation Sans, sans-serif" font-size="353px" font-weight="400"><tspan class="TextPosition" x="1638" y="9469"><tspan fill="rgb(0,0,0)" stroke="none" style="white-space: pre">50</tspan></tspan></tspan></text>
 <text class="SVGTextShape"><tspan class="TextParagraph" font-family="Liberation Sans, sans-serif" font-size="353px" font-weight="400"><tspan class="TextPosition" x="1452" y="7964"><tspan fill="rgb(0,0,0)" stroke="none" style="white-space: pre">100</tspan></tspan></tspan></text>
 <text class="SVGTextShape"><tspan class="TextParagraph" font-family="Liberation Sans, sans-serif" font-size="353px" font-weight="400"><tspan class="TextPosition" x="1452" y="6460"><tspan fill="rgb(0,0,0)" stroke="none" style="white-space: pre">150</tspan></tspan></tspan></text>
 <text class="SVGTextShape"><tspan class="TextParagraph" font-family="Liberation Sans, sans-serif" font-size="353px" font-weight="400"><tspan class="TextPosition" x="1452" y="4955"><tspan fill="rgb(0,0,0)" stroke="none" style="white-space: pre">200</tspan></tspan></tspan></text>
 <text class="SVGTextShape"><tspan class="TextParagraph" font-family="Liberation Sans, sans-serif" font-size="353px" font-weight="400"><tspan class="TextPosition" x="1452" y="3451"><tspan fill="rgb(0,0,0)" stroke="none" style="white-space: pre">250</tspan></tspan></tspan></text>
 <text class="SVGTextShape"><tspan class="TextParagraph" font-family="Liberation Sans, sans-serif" font-size="459px" font-weight="400"><tspan class="TextPosition" x="11003" y="913"><tspan fill="rgb(0,0,0)" stroke="none" style="white-space: pre">fmt</tspan></tspan></tspan></text>
 <text class="SVGTextShape"><tspan class="TextParagraph" font-family="Liberation Sans, sans-serif" font-size="388px" font-weight="400"><tspan class="TextPosition" x="9601" y="1898"><tspan fill="rgb(0,0,0)" stroke="none" style="white-space: pre">format vs Arithmetic</tspan></tspan></tspan></text>
 <path fill="none" stroke="rgb(0,69,134)" stroke-width="80" stroke-linejoin="round" d="M 7922,2578 L 8722,2578"/>
 <path fill="none" stroke="rgb(255,66,14)" stroke-width="80" stroke-linejoin="round" d="M 10749,2578 L 11548,2578"/>
 <text class="SVGTextShape"><tspan class="TextParagraph" font-family="Liberation Sans, sans-serif" font-size="353px" font-weight="400"><tspan class="TextPosition" x="8822" y="2698"><tspan fill="rgb(0,0,0)" stroke="none" style="white-space: pre">fmt::format</tspan></tspan></tspan></text>
 <text class="SVGTextShape"><tspan class="TextParagraph" font-family="Liberation Sans, sans-serif" font-size="353px" font-weight="400"><tspan class="TextPosition" x="11648" y="2698"><tspan fill="rgb(0,0,0)" stroke="none" style="white-space: pre">Arithmetic approach</tspan></tspan></tspan></text>
 <text class="SVGTextShape"><tspan class="TextParagraph" font-family="Liberation Sans, sans-serif" font-size="318px" font-weight="400"><tspan class="TextPosition" x="10385" y="12143"><tspan fill="rgb(0,0,0)" stroke="none" style="white-space: pre">Number of decimals</tspan></tspan></tspan></text>
 <text class="SVGTextShape" transform="rotate(-90 824 8084)"><tspan class="TextParagraph" font-family="Liberation Sans, sans-serif" font-size="318px" font-weight="400"><tspan class="TextPosition" x="824" y="8084"><tspan fill="rgb(0,0,0)" stroke="none" style="white-space: pre">format (ns)</tspan></tspan></tspan></text>
</svg>