<?xml version="1.0" encoding="UTF-8"?>
<!DOCTYPE svg PUBLIC "-//W3C//DTD SVG 1.1//EN" "http://www.w3.org/Graphics/SVG/1.1/DTD/svg11.dtd">
<svg width="212mm" height="137mm" viewBox="0 0 21200 13700" version="1.1" xmlns="http://www.w3.org/2000/svg" xmlns:xlink="http://www.w3.org/1999/xlink" stroke-width="28.222" stroke-linejoin="round" xml:space="preserve">
 <path fill="rgb(255,255,255)" stroke="none" d="M 10564,13699 L -13,13699 -13,-13 21141,-13 21141,13699 10564,13699 Z"/>
 <path fill="none" stroke="rgb(179,179,179)" stroke-linejoin="round" d="M 11472,11797 L 2413,11797 2413,2432 20531,2432 20531,11797 11472,11797 Z"/>
 <path fill="none" stroke="rgb(179,179,179)" stroke-linejoin="round" d="M 20531,11796 L 2413,11796"/>
 <path fill="none" stroke="rgb(179,179,179)" stroke-linejoin="round" d="M 20531,10458 L 2413,10458"/>
 <path fill="none" stroke="rgb(179,179,179)" stroke-linejoin="round" d="M 20531,9120 L 2413,9120"/>
 <path fill="none" stroke="rgb(179,179,179)" stroke-linejoin="round" d="M 20531,7782 L 2413,7782"/>
 <path fill="none" stroke="rgb(179,179,179)" stroke-linejoin="round" d="M 20531,6445 L 2413,6445"/>
 <path fill="none" stroke="rgb(179,179,179)" stroke-linejoin="round" d="M 20531,5107 L 2413,5107"/>
 <path fill="none" stroke="rgb(179,179,179)" stroke-linejoin="round" d="M 20531,3768 L 2413,3768"/>
 <path fill="none" stroke="rgb(179,179,179)" stroke-linejoin="round" d="M 20531,2431 L 2413,2431"/>
 <path fill="none" stroke="rgb(179,179,179)" stroke-linejoin="round" d="M 2413,11946 L 2413,11796"/>
 <path fill="none" stroke="rgb(179,179,179)" stroke-linejoin="round" d="M 2413,11946 L 2413,11796"/>
 <path fill="none" stroke="rgb(179,179,179)" stroke-linejoin="round" d="M 3620,11946 L 3620,11796"/>
 <path fill="none" stroke="rgb(179,179,179)" stroke-linejoin="round" d="M 3620,11946 L 3620,11796"/>
 <path fill="none" stroke="rgb(179,179,179)" stroke-linejoin="round" d="M 4828,11946 L 4828,11796"/>
 <path fill="none" stroke="rgb(179,179,179)" stroke-linejoin="round" d="M 4828,11946 L 4828,11796"/>
 <path fill="none" stroke="rgb(179,179,179)" stroke-linejoin="round" d="M 6036,11946 L 6036,11796"/>
 <path fill="none" stroke="rgb(179,179,179)" stroke-linejoin="round" d="M 6036,11946 L 6036,11796"/>
 <path fill="none" stroke="rgb(179,179,179)" stroke-linejoin="round" d="M 7244,11946 L 7244,11796"/>
 <path fill="none" stroke="rgb(179,179,179)" stroke-linejoin="round" d="M 7244,11946 L 7244,11796"/>
 <path fill="none" stroke="rgb(179,179,179)" stroke-linejoin="round" d="M 8452,11946 L 8452,11796"/>
 <path fill="none" stroke="rgb(179,179,179)" stroke-linejoin="round" d="M 8452,11946 L 8452,11796"/>
 <path fill="none" stroke="rgb(179,179,179)" stroke-linejoin="round" d="M 9660,11946 L 9660,11796"/>
 <path fill="none" stroke="rgb(179,179,179)" stroke-linejoin="round" d="M 9660,11946 L 9660,11796"/>
 <path fill="none" stroke="rgb(179,179,179)" stroke-linejoin="round" d="M 10867,11946 L 10867,11796"/>
 <path fill="none" stroke="rgb(179,179,179)" stroke-linejoin="round" d="M 10867,11946 L 10867,11796"/>
 <path fill="none" stroke="rgb(179,179,179)" stroke-linejoin="round" d="M 12075,11946 L 12075,11796"/>
 <path fill="none" stroke="rgb(179,179,179)" stroke-linejoin="round" d="M 12075,11946 L 12075,11796"/>
 <path fill="none" stroke="rgb(179,179,179)" stroke-linejoin="round" d="M 13283,11946 L 13283,11796"/>
 <path fill="none" stroke="rgb(179,179,179)" stroke-linejoin="round" d="M 13283,11946 L 13283,11796"/>
 <path fill="none" stroke="rgb(179,179,179)" stroke-linejoin="round" d="M 14491,11946 L 14491,11796"/>
 <path fill="none" stroke="rgb(179,179,179)" stroke-linejoin="round" d="M 14491,11946 L 14491,11796"/>
 <path fill="none" stroke="rgb(179,179,179)" stroke-linejoin="round" d="M 15699,11946 L 15699,11796"/>
 <path fill="none" stroke="rgb(179,179,179)" stroke-linejoin="round" d="M 15699,11946 L 15699,11796"/>
 <path fill="none" stroke="rgb(179,179,179)" stroke-linejoin="round" d="M 16907,11946 L 16907,11796"/>
 <path fill="none" stroke="rgb(179,179,179)" stroke-linejoin="round" d="M 16907,11946 L 16907,11796"/>
 <path fill="none" stroke="rgb(179,179,179)" stroke-linejoin="round" d="M 18115,11946 L 18115,11796"/>
 <path fill="none" stroke="rgb(179,179,179)" stroke-linejoin="round" d="M 18115,11946 L 18115,11796"/>
 <path fill="none" stroke="rgb(179,179,179)" stroke-linejoin="round" d="M 19323,11946 L 19323,11796"/>
 <path fill="none" stroke="rgb(179,179,179)" stroke-linejoin="round" d="M 19323,11946 L 19323,11796"/>
 <path fill="none" stroke="rgb(179,179,179)" stroke-linejoin="round" d="M 20531,11946 L 20531,11796"/>
 <path fill="none" stroke="rgb(179,179,179)" stroke-linejoin="round" d="M 20531,11946 L 20531,11796"/>
 <path fill="none" stroke="rgb(179,179,179)" stroke-linejoin="round" d="M 2413,11796 L 20531,11796"/>
 <path fill="none" stroke="rgb(179,179,179)" stroke-linejoin="round" d="M 2263,11796 L 2413,11796"/>
 <path fill="none" stroke="rgb(179,179,179)" stroke-linejoin="round" d="M 2263,11796 L 2413,11796"/>
 <path fill="none" stroke="rgb(179,179,179)" stroke-linejoin="round" d="M 2263,10458 L 2413,10458"/>
 <path fill="none" stroke="rgb(179,179,179)" stroke-linejoin="round" d="M 2263,10458 L 2413,10458"/>
 <path fill="none" stroke="rgb(179,179,179)" stroke-linejoin="round" d="M 2263,9120 L 2413,9120"/>
 <path fill="none" stroke="rgb(179,179,179)" stroke-linejoin="round" d="M 2263,9120 L 2413,9120"/>
 <path fill="none" stroke="rgb(179,179,179)" stroke-linejoin="round" d="M 2263,7782 L 2413,7782"/>
 <path fill="none" stroke="rgb(179,179,179)" stroke-linejoin="round" d="M 2263,7782 L 2413,7782"/>
 <path fill="none" stroke="rgb(179,179,179)" stroke-linejoin="round" d="M 2263,6445 L 2413,6445"/>
 <path fill="none" stroke="rgb(179,179,179)" stroke-linejoin="round" d="M 2263,6445 L 2413,6445"/>
 <path fill="none" stroke="rgb(179,179,179)" stroke-linejoin="round" d="M 2263,5107 L 2413,5107"/>
 <path fill="none" stroke="rgb(179,179,179)" stroke-linejoin="round" d="M 2263,5107 L 2413,5107"/>
 <path fill="none" stroke="rgb(179,179,179)" stroke-linejoin="round" d="M 2263,3769 L 2413,3769"/>
 <path fill="none" stroke="rgb(179,179,179)" stroke-linejoin="round" d="M 2263,3769 L 2413,3769"/>
 <path fill="none" stroke="rgb(179,179,179)" stroke-linejoin="round" d="M 2263,2431 L 2413,2431"/>
 <path fill="none" stroke="rgb(179,179,179)" stroke-linejoin="round" d="M 2263,2431 L 2413,2431"/>
 <path fill="none" stroke="rgb(179,179,179)" stroke-linejoin="round" d="M 2413,11796 L 2413,2431"/>
 <path fill="none" stroke="rgb(0,69,134)" stroke-width="80" stroke-linejoin="round" d="M 2413,8091 L 3620,7873 4828,7062 6036,6872 7244,6886 8452,6799 9660,6774 10867,6527 12075,6606 13283,6486 14491,6257 15699,6247 16907,5698 18115,6152 19323,5878 20531,5657"/>
 <path fill="none" stroke="rgb(255,66,14)" stroke-width="80" stroke-linejoin="round" d="M 2413,5851 L 3620,5911 4828,5774 6036,5223 7244,4604 8452,4289 9660,4700 10867,4440 12075,4463 13283,4724 14491,4561 15699,4176 16907,4184 18115,4050 19323,4088 20531,4410"/>
 <text class="SVGTextShape"><tspan class="TextParagraph" font-family="Liberation Sans, sans-serif" font-size="353px" font-weight="400"><tspan class="TextPosition" x="2320" y="12364"><tspan fill="rgb(0,0,0)" stroke="none" style="white-space: pre">0</tspan></tspan></tspan></text>
 <text class="SVGTextShape"><tspan class="TextParagraph" font-family="Liberation Sans, sans-serif" font-size="353px" font-weight="400"><tspan class="TextPosition" x="3527" y="12364"><tspan fill="rgb(0,0,0)" stroke="none" style="white-space: pre">1</tspan></tspan></tspan></text>
 <text class="SVGTextShape"><tspan class="TextParagraph" font-family="Liberation Sans, sans-serif" font-size="353px" font-weight="400"><tspan class="TextPosition" x="4735" y="12364"><tspan fill="rgb(0,0,0)" stroke="none" style="white-space: pre">2</tspan></tspan></tspan></text>
 <text class="SVGTextShape"><tspan class="TextParagraph" font-family="Liberation Sans, sans-serif" font-size="353px" font-weight="400"><tspan class="TextPosition" x="5943" y="12364"><tspan fill="rgb(0,0,0)" stroke="none" style="white-space: pre">3</tspan></tspan></tspan></text>
 <text class="SVGTextShape"><tspan class="TextParagraph" font-family="Liberation Sans, sans-serif" font-size="353px" font-weight="400"><tspan class="TextPosition" x="7151" y="12364"><tspan fill="rgb(0,0,0)" stroke="none" style="white-space: pre">4</tspan></tspan></tspan></text>
 <text class="SVGTextShape"><tspan class="TextParagraph" font-family="Liberation Sans, sans-serif" font-size="353px" font-weight="400"><tspan class="TextPosition" x="8359" y="12364"><tspan fill="rgb(0,0,0)" stroke="none" style="white-space: pre">5</tspan></tspan></tspan></text>
 <text class="SVGTextShape"><tspan class="TextParagraph" font-family="Liberation Sans, sans-serif" font-size="353px" font-weight="400"><tspan class="TextPosition" x="9567" y="12364"><tspan fill="rgb(0,0,0)" stroke="none" style="white-space: pre">6</tspan></tspan></tspan></text>
 <text class="SVGTextShape"><tspan class="TextParagraph" font-family="Liberation Sans, sans-serif" font-size="353px" font-weight="400"><tspan class="TextPosition" x="10775" y="12364"><tspan fill="rgb(0,0,0)" stroke="none" style="white-space: pre">7</tspan></tspan></tspan></text>
 <text class="SVGTextShape"><tspan class="TextParagraph" font-family="Liberation Sans, sans-serif" font-size="353px" font-weight="400"><tspan class="TextPosition" x="11983" y="12364"><tspan fill="rgb(0,0,0)" stroke="none" style="white-space: pre">8</tspan></tspan></tspan></text>
 <text class="SVGTextShape"><tspan class="TextParagraph" font-family="Liberation Sans, sans-serif" font-size="353px" font-weight="400"><tspan class="TextPosition" x="13191" y="12364"><tspan fill="rgb(0,0,0)" stroke="none" style="white-space: pre">9</tspan></tspan></tspan></text>
 <text class="SVGTextShape"><tspan class="TextParagraph" font-family="Liberation Sans, sans-serif" font-size="353px" font-weight="400"><tspan class="TextPosition" x="14307" y="12364"><tspan fill="rgb(0,0,0)" stroke="none" style="white-space: pre">10</tspan></tspan></tspan></text>
 <text class="SVGTextShape"><tspan class="TextParagraph" font-family="Liberation Sans, sans-serif" font-size="353px" font-weight="400"><tspan class="TextPosition" x="15515" y="12364"><tspan fill="rgb(0,0,0)" stroke="none" style="white-space: pre">11</tspan></tspan></tspan></text>
 <text class="SVGTextShape"><tspan class="TextParagraph" font-family="Liberation Sans, sans-serif" font-size="353px" font-weight="400"><tspan class="TextPosition" x="16723" y="12364"><tspan fill="rgb(0,0,0)" stroke="none" style="white-space: pre">12</tspan></tspan></tspan></text>
 <text class="SVGTextShape"><tspan class="TextParagraph" font-family="Liberation Sans, sans-serif" font-size="353px" font-weight="400"><tspan class="TextPosition" x="17931" y="12364"><tspan fill="rgb(0,0,0)" stroke="none" style="white-space: pre">13</tspan></tspan></tspan></text>
 <text class="SVGTextShape"><tspan class="TextParagraph" font-family="Liberation Sans, sans-serif" font-size="353px" font-weight="400"><tspan class="TextPosition" x="19139" y="12364"><tspan fill="rgb(0,0,0)" stroke="none" style="white-space: pre">14</tspan></tspan></tspan></text>
 <text class="SVGTextShape"><tspan class="TextParagraph" font-family="Liberation Sans, sans-serif" font-size="353px" font-weight="400"><tspan class="TextPosition" x="20347" y="12364"><tspan fill="rgb(0,0,0)" stroke="none" style="white-space: pre">15</tspan></tspan></tspan></text>
 <text class="SVGTextShape"><tspan class="TextParagraph" font-family="Liberation Sans, sans-serif" font-size="353px" font-weight="400"><tspan class="TextPosition" x="1978" y="11917"><tspan fill="rgb(0,0,0)" stroke="none" style="white-space: pre">0</tspan></tspan></tspan></text>
 <text class="SVGTextShape"><tspan class="TextParagraph" font-family="Liberation Sans, sans-serif" font-size="353px" font-weight="400"><tspan class="TextPosition" x="1607" y="10579"><tspan fill="rgb(0,0,0)" stroke="none" style="white-space: pre">200</tspan></tspan></tspan></text>
 <text class="SVGTextShape"><tspan class="TextParagraph" font-family="Liberation Sans, sans-serif" font-size="353px" font-weight="400"><tspan class="TextPosition" x="1607" y="9241"><tspan fill="rgb(0,0,0)" stroke="none" style="white-space: pre">400</tspan></tspan></tspan></text>
 <text class="SVGTextShape"><tspan class="TextParagraph" font-family="Liberation Sans, sans-serif" font-size="353px" font-weight="400"><tspan class="TextPosition" x="1607" y="7903"><tspan fill="rgb(0,0,0)" stroke="none" style="white-space: pre">600</tspan></tspan></tspan></text>
 <text class="SVGTextShape"><tspan class="TextParagraph" font-family="Liberation Sans, sans-serif" font-size="353px" font-weight="400"><tspan class="TextPosition" x="1607" y="6565"><tspan fill="rgb(0,0,0)" stroke="none" style="white-space: pre">800</tspan></tspan></tspan></text>
 <text class="SVGTextShape"><tspan class="TextParagraph" font-family="Liberation Sans, sans-serif" font-size="353px" font-weight="400"><tspan class="TextPosition" x="1422" y="5227"><tspan fill="rgb(0,0,0)" stroke="none" style="white-space: pre">1000</tspan></tspan></tspan></text>
 <text class="SVGTextShape"><tspan class="TextParagraph" font-family="Liberation Sans, sans-serif" font-size="353px" font-weight="400"><tspan class="TextPosition" x="1422" y="3889"><tspan fill="rgb(0,0,0)" stroke="none" style="white-space: pre">1200</tspan></tspan></tspan></text>
 <text class="SVGTextShape"><tspan class="TextParagraph" font-family="Liberation Sans, sans-serif" font-size="353px" font-weight="400"><tspan class="TextPosition" x="1422" y="2551"><tspan fill="rgb(0,0,0)" stroke="none" style="white-space: pre">1400</tspan></tspan></tspan></text>
 <text class="SVGTextShape"><tspan class="TextParagraph" font-family="Liberation Sans, sans-serif" font-size="459px" font-weight="400"><tspan class="TextPosition" x="10167" y="932"><tspan fill="rgb(0,0,0)" stroke="none" style="white-space: pre">Glib</tspan></tspan></tspan></text>
 <path fill="none" stroke="rgb(0,69,134)" stroke-width="80" stroke-linejoin="round" d="M 7680,1659 L 8480,1659"/>
 <path fill="none" stroke="rgb(255,66,14)" stroke-width="80" stroke-linejoin="round" d="M 9793,1659 L 10592,1659"/>
 <text class="SVGTextShape"><tspan class="TextParagraph" font-family="Liberation Sans, sans-serif" font-size="353px" font-weight="400"><tspan class="TextPosition" x="8580" y="1779"><tspan fill="rgb(0,0,0)" stroke="none" style="white-space: pre">format</tspan></tspan></tspan></text>
 <text class="SVGTextShape"><tspan class="TextParagraph" font-family="Liberation Sans, sans-serif" font-size="353px" font-weight="400"><tspan class="TextPosition" x="10692" y="1779"><tspan fill="rgb(0,0,0)" stroke="none" style="white-space: pre">arithmetic method</tspan></tspan></tspan></text>
 <text class="SVGTextShape"><tspan class="TextParagraph" font-family="Liberation Sans, sans-serif" font-size="318px" font-weight="400"><tspan class="TextPosition" x="9628" y="13105"><tspan fill="rgb(0,0,0)" stroke="none" style="white-space: pre">Number of decimals</tspan></tspan></tspan></text>
 <text class="SVGTextShape" transform="rotate(-90 824 8013)"><tspan class="TextParagraph" font-family="Liberation Sans, sans-serif" font-size="318px" font-weight="400"><tspan class="TextPosition" x="824" y="8013"><tspan fill="rgb(0,0,0)" stroke="none" style="white-space: pre">Time (ns)</tspan></tspan></tspan></text>
</svg>