<?xml version="1.0" encoding="UTF-8"?>
<!DOCTYPE svg PUBLIC "-//W3C//DTD SVG 1.1//EN" "http://www.w3.org/Graphics/SVG/1.1/DTD/svg11.dtd">
<svg width="212mm" height="137mm" viewBox="0 0 21200 13700" version="1.1" xmlns="http://www.w3.org/2000/svg" xmlns:xlink="http://www.w3.org/1999/xlink" stroke-width="28.222" stroke-linejoin="round" xml:space="preserve">
 <path fill="rgb(255,255,255)" stroke="none" d="M 10564,13699 L -13,13699 -13,-13 21141,-13 21141,13699 10564,13699 Z"/>
 <path fill="none" stroke="rgb(179,179,179)" stroke-linejoin="round" d="M 11379,11797 L 2228,11797 2228,2432 20531,2432 20531,11797 11379,11797 Z"/>
 <path fill="none" stroke="rgb(179,179,179)" stroke-linejoin="round" d="M 20531,11796 L 2228,11796"/>
 <path fill="none" stroke="rgb(179,179,179)" stroke-linejoin="round" d="M 20531,10458 L 2228,10458"/>
 <path fill="none" stroke="rgb(179,179,179)" stroke-linejoin="round" d="M 20531,9120 L 2228,9120"/>
 <path fill="none" stroke="rgb(179,179,179)" stroke-linejoin="round" d="M 20531,7782 L 2228,7782"/>
 <path fill="none" stroke="rgb(179,179,179)" stroke-linejoin="round" d="M 20531,6445 L 2228,6445"/>
 <path fill="none" stroke="rgb(179,179,179)" stroke-linejoin="round" d="M 20531,5107 L 2228,5107"/>
 <path fill="none" stroke="rgb(179,179,179)" stroke-linejoin="round" d="M 20531,3768 L 2228,3768"/>
 <path fill="none" stroke="rgb(179,179,179)" stroke-linejoin="round" d="M 20531,2431 L 2228,2431"/>
 <path fill="none" stroke="rgb(179,179,179)" stroke-linejoin="round" d="M 2228,11946 L 2228,11796"/>
 <path fill="none" stroke="rgb(179,179,179)" stroke-linejoin="round" d="M 2228,11946 L 2228,11796"/>
 <path fill="none" stroke="rgb(179,179,179)" stroke-linejoin="round" d="M 3448,11946 L 3448,11796"/>
 <path fill="none" stroke="rgb(179,179,179)" stroke-linejoin="round" d="M 3448,11946 L 3448,11796"/>
 <path fill="none" stroke="rgb(179,179,179)" stroke-linejoin="round" d="M 4668,11946 L 4668,11796"/>
 <path fill="none" stroke="rgb(179,179,179)" stroke-linejoin="round" d="M 4668,11946 L 4668,11796"/>
 <path fill="none" stroke="rgb(179,179,179)" stroke-linejoin="round" d="M 5888,11946 L 5888,11796"/>
 <path fill="none" stroke="rgb(179,179,179)" stroke-linejoin="round" d="M 5888,11946 L 5888,11796"/>
 <path fill="none" stroke="rgb(179,179,179)" stroke-linejoin="round" d="M 7109,11946 L 7109,11796"/>
 <path fill="none" stroke="rgb(179,179,179)" stroke-linejoin="round" d="M 7109,11946 L 7109,11796"/>
 <path fill="none" stroke="rgb(179,179,179)" stroke-linejoin="round" d="M 8329,11946 L 8329,11796"/>
 <path fill="none" stroke="rgb(179,179,179)" stroke-linejoin="round" d="M 8329,11946 L 8329,11796"/>
 <path fill="none" stroke="rgb(179,179,179)" stroke-linejoin="round" d="M 9549,11946 L 9549,11796"/>
 <path fill="none" stroke="rgb(179,179,179)" stroke-linejoin="round" d="M 9549,11946 L 9549,11796"/>
 <path fill="none" stroke="rgb(179,179,179)" stroke-linejoin="round" d="M 10768,11946 L 10768,11796"/>
 <path fill="none" stroke="rgb(179,179,179)" stroke-linejoin="round" d="M 10768,11946 L 10768,11796"/>
 <path fill="none" stroke="rgb(179,179,179)" stroke-linejoin="round" d="M 11989,11946 L 11989,11796"/>
 <path fill="none" stroke="rgb(179,179,179)" stroke-linejoin="round" d="M 11989,11946 L 11989,11796"/>
 <path fill="none" stroke="rgb(179,179,179)" stroke-linejoin="round" d="M 13209,11946 L 13209,11796"/>
 <path fill="none" stroke="rgb(179,179,179)" stroke-linejoin="round" d="M 13209,11946 L 13209,11796"/>
 <path fill="none" stroke="rgb(179,179,179)" stroke-linejoin="round" d="M 14429,11946 L 14429,11796"/>
 <path fill="none" stroke="rgb(179,179,179)" stroke-linejoin="round" d="M 14429,11946 L 14429,11796"/>
 <path fill="none" stroke="rgb(179,179,179)" stroke-linejoin="round" d="M 15649,11946 L 15649,11796"/>
 <path fill="none" stroke="rgb(179,179,179)" stroke-linejoin="round" d="M 15649,11946 L 15649,11796"/>
 <path fill="none" stroke="rgb(179,179,179)" stroke-linejoin="round" d="M 16870,11946 L 16870,11796"/>
 <path fill="none" stroke="rgb(179,179,179)" stroke-linejoin="round" d="M 16870,11946 L 16870,11796"/>
 <path fill="none" stroke="rgb(179,179,179)" stroke-linejoin="round" d="M 18090,11946 L 18090,11796"/>
 <path fill="none" stroke="rgb(179,179,179)" stroke-linejoin="round" d="M 18090,11946 L 18090,11796"/>
 <path fill="none" stroke="rgb(179,179,179)" stroke-linejoin="round" d="M 19310,11946 L 19310,11796"/>
 <path fill="none" stroke="rgb(179,179,179)" stroke-linejoin="round" d="M 19310,11946 L 19310,11796"/>
 <path fill="none" stroke="rgb(179,179,179)" stroke-linejoin="round" d="M 20531,11946 L 20531,11796"/>
 <path fill="none" stroke="rgb(179,179,179)" stroke-linejoin="round" d="M 20531,11946 L 20531,11796"/>
 <path fill="none" stroke="rgb(179,179,179)" stroke-linejoin="round" d="M 2228,11796 L 20531,11796"/>
 <path fill="none" stroke="rgb(179,179,179)" stroke-linejoin="round" d="M 2078,11796 L 2228,11796"/>
 <path fill="none" stroke="rgb(179,179,179)" stroke-linejoin="round" d="M 2078,11796 L 2228,11796"/>
 <path fill="none" stroke="rgb(179,179,179)" stroke-linejoin="round" d="M 2078,10458 L 2228,10458"/>
 <path fill="none" stroke="rgb(179,179,179)" stroke-linejoin="round" d="M 2078,10458 L 2228,10458"/>
 <path fill="none" stroke="rgb(179,179,179)" stroke-linejoin="round" d="M 2078,9120 L 2228,9120"/>
 <path fill="none" stroke="rgb(179,179,179)" stroke-linejoin="round" d="M 2078,9120 L 2228,9120"/>
 <path fill="none" stroke="rgb(179,179,179)" stroke-linejoin="round" d="M 2078,7782 L 2228,7782"/>
 <path fill="none" stroke="rgb(179,179,179)" stroke-linejoin="round" d="M 2078,7782 L 2228,7782"/>
 <path fill="none" stroke="rgb(179,179,179)" stroke-linejoin="round" d="M 2078,6445 L 2228,6445"/>
 <path fill="none" stroke="rgb(179,179,179)" stroke-linejoin="round" d="M 2078,6445 L 2228,6445"/>
 <path fill="none" stroke="rgb(179,179,179)" stroke-linejoin="round" d="M 2078,5107 L 2228,5107"/>
 <path fill="none" stroke="rgb(179,179,179)" stroke-linejoin="round" d="M 2078,5107 L 2228,5107"/>
 <path fill="none" stroke="rgb(179,179,179)" stroke-linejoin="round" d="M 2078,3769 L 2228,3769"/>
 <path fill="none" stroke="rgb(179,179,179)" stroke-linejoin="round" d="M 2078,3769 L 2228,3769"/>
 <path fill="none" stroke="rgb(179,179,179)" stroke-linejoin="round" d="M 2078,2431 L 2228,2431"/>
 <path fill="none" stroke="rgb(179,179,179)" stroke-linejoin="round" d="M 2078,2431 L 2228,2431"/>
 <path fill="none" stroke="rgb(179,179,179)" stroke-linejoin="round" d="M 2228,11796 L 2228,2431"/>
 <path fill="none" stroke="rgb(0,69,134)" stroke-width="80" stroke-linejoin="round" d="M 2228,7452 L 3448,6985 4668,6811 5888,6576 7109,6447 8329,6351 9549,6039 10768,5873 11989,5843 13209,5486 14429,5487 15649,5366 16870,3314 18090,5100 19310,4296 20531,3864"/>
 <path fill="none" stroke="rgb(255,66,14)" stroke-width="80" stroke-linejoin="round" d="M 2228,9387 L 3448,8729 4668,8756 5888,8695 7109,8782 8329,8681 9549,8657 10768,8567 11989,8552 13209,8550 14429,8129 15649,8481 16870,8508 18090,8494 19310,8365 20531,8441"/>
 <text class="SVGTextShape"><tspan class="TextParagraph" font-family="Liberation Sans, sans-serif" font-size="353px" font-weight="400"><tspan class="TextPosition" x="2135" y="12364"><tspan fill="rgb(0,0,0)" stroke="none" style="white-space: pre">0</tspan></tspan></tspan></text>
 <text class="SVGTextShape"><tspan class="TextParagraph" font-family="Liberation Sans, sans-serif" font-size="353px" font-weight="400"><tspan class="TextPosition" x="3355" y="12364"><tspan fill="rgb(0,0,0)" stroke="none" style="white-space: pre">1</tspan></tspan></tspan></text>
 <text class="SVGTextShape"><tspan class="TextParagraph" font-family="Liberation Sans, sans-serif" font-size="353px" font-weight="400"><tspan class="TextPosition" x="4575" y="12364"><tspan fill="rgb(0,0,0)" stroke="none" style="white-space: pre">2</tspan></tspan></tspan></text>
 <text class="SVGTextShape"><tspan class="TextParagraph" font-family="Liberation Sans, sans-serif" font-size="353px" font-weight="400"><tspan class="TextPosition" x="5795" y="12364"><tspan fill="rgb(0,0,0)" stroke="none" style="white-space: pre">3</tspan></tspan></tspan></text>
 <text class="SVGTextShape"><tspan class="TextParagraph" font-family="Liberation Sans, sans-serif" font-size="353px" font-weight="400"><tspan class="TextPosition" x="7016" y="12364"><tspan fill="rgb(0,0,0)" stroke="none" style="white-space: pre">4</tspan></tspan></tspan></text>
 <text class="SVGTextShape"><tspan class="TextParagraph" font-family="Liberation Sans, sans-serif" font-size="353px" font-weight="400"><tspan class="TextPosition" x="8236" y="12364"><tspan fill="rgb(0,0,0)" stroke="none" style="white-space: pre">5</tspan></tspan></tspan></text>
 <text class="SVGTextShape"><tspan class="TextParagraph" font-family="Liberation Sans, sans-serif" font-size="353px" font-weight="400"><tspan class="TextPosition" x="9456" y="12364"><tspan fill="rgb(0,0,0)" stroke="none" style="white-space: pre">6</tspan></tspan></tspan></text>
 <text class="SVGTextShape"><tspan class="TextParagraph" font-family="Liberation Sans, sans-serif" font-size="353px" font-weight="400"><tspan class="TextPosition" x="10676" y="12364"><tspan fill="rgb(0,0,0)" stroke="none" style="white-space: pre">7</tspan></tspan></tspan></text>
 <text class="SVGTextShape"><tspan class="TextParagraph" font-family="Liberation Sans, sans-serif" font-size="353px" font-weight="400"><tspan class="TextPosition" x="11897" y="12364"><tspan fill="rgb(0,0,0)" stroke="none" style="white-space: pre">8</tspan></tspan></tspan></text>
 <text class="SVGTextShape"><tspan class="TextParagraph" font-family="Liberation Sans, sans-serif" font-size="353px" font-weight="400"><tspan class="TextPosition" x="13117" y="12364"><tspan fill="rgb(0,0,0)" stroke="none" style="white-space: pre">9</tspan></tspan></tspan></text>
 <text class="SVGTextShape"><tspan class="TextParagraph" font-family="Liberation Sans, sans-serif" font-size="353px" font-weight="400"><tspan class="TextPosition" x="14245" y="12364"><tspan fill="rgb(0,0,0)" stroke="none" style="white-space: pre">10</tspan></tspan></tspan></text>
 <text class="SVGTextShape"><tspan class="TextParagraph" font-family="Liberation Sans, sans-serif" font-size="353px" font-weight="400"><tspan class="TextPosition" x="15465" y="12364"><tspan fill="rgb(0,0,0)" stroke="none" style="white-space: pre">11</tspan></tspan></tspan></text>
 <text class="SVGTextShape"><tspan class="TextParagraph" font-family="Liberation Sans, sans-serif" font-size="353px" font-weight="400"><tspan class="TextPosition" x="16686" y="12364"><tspan fill="rgb(0,0,0)" stroke="none" style="white-space: pre">12</tspan></tspan></tspan></text>
 <text class="SVGTextShape"><tspan class="TextParagraph" font-family="Liberation Sans, sans-serif" font-size="353px" font-weight="400"><tspan class="TextPosition" x="17906" y="12364"><tspan fill="rgb(0,0,0)" stroke="none" style="white-space: pre">13</tspan></tspan></tspan></text>
 <text class="SVGTextShape"><tspan class="TextParagraph" font-family="Liberation Sans, sans-serif" font-size="353px" font-weight="400"><tspan class="TextPosition" x="19126" y="12364"><tspan fill="rgb(0,0,0)" stroke="none" style="white-space: pre">14</tspan></tspan></tspan></text>
 <text class="SVGTextShape"><tspan class="TextParagraph" font-family="Liberation Sans, sans-serif" font-size="353px" font-weight="400"><tspan class="TextPosition" x="20347" y="12364"><tspan fill="rgb(0,0,0)" stroke="none" style="white-space: pre">15</tspan></tspan></tspan></text>
 <text class="SVGTextShape"><tspan class="TextParagraph" font-family="Liberation Sans, sans-serif" font-size="353px" font-weight="400"><tspan class="TextPosition" x="1793" y="11917"><tspan fill="rgb(0,0,0)" stroke="none" style="white-space: pre">0</tspan></tspan></tspan></text>
 <text class="SVGTextShape"><tspan class="TextParagraph" font-family="Liberation Sans, sans-serif" font-size="353px" font-weight="400"><tspan class="TextPosition" x="1608" y="10579"><tspan fill="rgb(0,0,0)" stroke="none" style="white-space: pre">50</tspan></tspan></tspan></text>
 <text class="SVGTextShape"><tspan class="TextParagraph" font-family="Liberation Sans, sans-serif" font-size="353px" font-weight="400"><tspan class="TextPosition" x="1422" y="9241"><tspan fill="rgb(0,0,0)" stroke="none" style="white-space: pre">100</tspan></tspan></tspan></text>
 <text class="SVGTextShape"><tspan class="TextParagraph" font-family="Liberation Sans, sans-serif" font-size="353px" font-weight="400"><tspan class="TextPosition" x="1422" y="7903"><tspan fill="rgb(0,0,0)" stroke="none" style="white-space: pre">150</tspan></tspan></tspan></text>
 <text class="SVGTextShape"><tspan class="TextParagraph" font-family="Liberation Sans, sans-serif" font-size="353px" font-weight="400"><tspan class="TextPosition" x="1422" y="6565"><tspan fill="rgb(0,0,0)" stroke="none" style="white-space: pre">200</tspan></tspan></tspan></text>
 <text class="SVGTextShape"><tspan class="TextParagraph" font-family="Liberation Sans, sans-serif" font-size="353px" font-weight="400"><tspan class="TextPosition" x="1422" y="5227"><tspan fill="rgb(0,0,0)" stroke="none" style="white-space: pre">250</tspan></tspan></tspan></text>
 <text class="SVGTextShape"><tspan class="TextParagraph" font-family="Liberation Sans, sans-serif" font-size="353px" font-weight="400"><tspan class="TextPosition" x="1422" y="3889"><tspan fill="rgb(0,0,0)" stroke="none" style="white-space: pre">300</tspan></tspan></tspan></text>
 <text class="SVGTextShape"><tspan class="TextParagraph" font-family="Liberation Sans, sans-serif" font-size="353px" font-weight="400"><tspan class="TextPosition" x="1422" y="2551"><tspan fill="rgb(0,0,0)" stroke="none" style="white-space: pre">350</tspan></tspan></tspan></text>
 <text class="SVGTextShape"><tspan class="TextParagraph" font-family="Liberation Sans, sans-serif" font-size="459px" font-weight="400"><tspan class="TextPosition" x="9823" y="932"><tspan fill="rgb(0,0,0)" stroke="none" style="white-space: pre">snprintf</tspan></tspan></tspan></text>
 <path fill="none" stroke="rgb(0,69,134)" stroke-width="80" stroke-linejoin="round" d="M 7680,1659 L 8480,1659"/>
 <path fill="none" stroke="rgb(255,66,14)" stroke-width="80" stroke-linejoin="round" d="M 9793,1659 L 10592,1659"/>
 <text class="SVGTextShape"><tspan class="TextParagraph" font-family="Liberation Sans, sans-serif" font-size="353px" font-weight="400"><tspan class="TextPosition" x="8580" y="1779"><tspan fill="rgb(0,0,0)" stroke="none" style="white-space: pre">format</tspan></tspan></tspan></text>
 <text class="SVGTextShape"><tspan class="TextParagraph" font-family="Liberation Sans, sans-serif" font-size="353px" font-weight="400"><tspan class="TextPosition" x="10692" y="1779"><tspan fill="rgb(0,0,0)" stroke="none" style="white-space: pre">arithmetic method</tspan></tspan></tspan></text>
 <text class="SVGTextShape"><tspan class="TextParagraph" font-family="Liberation Sans, sans-serif" font-size="318px" font-weight="400"><tspan class="TextPosition" x="9628" y="13105"><tspan fill="rgb(0,0,0)" stroke="none" style="white-space: pre">Number of decimals</tspan></tspan></tspan></text>
 <text class="SVGTextShape" transform="rotate(-90 824 8013)"><tspan class="TextParagraph" font-family="Liberation Sans, sans-serif" font-size="318px" font-weight="400"><tspan class="TextPosition" x="824" y="8013"><tspan fill="rgb(0,0,0)" stroke="none" style="white-space: pre">Time (ns)</tspan></tspan></tspan></text>
</svg>